{
  "accessors": [
    {
      "bufferView": 3,
      "componentType": 5126,
      "count": 934,
      "max": [
        0.879393458366394,
        2.0123698711395264,
        0.16902543604373932
      ],
      "min": [
        -0.879393458366394,
        -0.007475151214748621,
        -0.25631821155548096
      ],
      "type": "VEC3"
    },
    {
      "bufferView": 3,
      "byteOffset": 11208,
      "componentType": 5126,
      "count": 934,
      "max": [
        0.9865250587463379,
        0.9839115142822266,
        0.9991964101791382
      ],
      "min": [
        -0.9865250587463379,
        -0.9879766702651978,
        -0.9846926331520081
      ],
      "type": "VEC3"
    },
    {
      "bufferView": 2,
      "componentType": 5126,
      "count": 934,
      "max": [
        0.9920012950897217,
        0.9974977970123291
      ],
      "min": [
        0.01946614310145378,
        0.0009850397473201156
      ],
      "type": "VEC2"
    },
    {
      "bufferView": 1,
      "componentType": 5125,
      "count": 1266,
      "type": "SCALAR"
    },
    {
      "bufferView": 5,
      "componentType": 5126,
      "count": 37,
      "max": [
        1.0,
        1.000000238418579,
        1.0,
        0.0,
        1.0,
        1.0000001192092896,
        1.0000001192092896,
        0.0,
        1.000000238418579,
        1.0000001192092896,
        1.0,
        0.0,
        1.0578347444534302,
        1.827063798904419,
        1.6299755573272705,
        1.0
      ],
      "min": [
        -1.0000001192092896,
        -1.0000001192092896,
        -1.0,
        0.0,
        -1.0000001192092896,
        -0.9996784329414368,
        -0.8339468240737915,
        0.0,
        -1.0000001192092896,
        -0.279401957988739,
        -0.09343159198760986,
        0.0,
        -0.2961494028568268,
        -1.6190049648284912,
        -1.72573721408844,
        1.0
      ],
      "type": "MAT4"
    },
    {
      "bufferView": 0,
      "componentType": 5123,
      "count": 934,
      "type": "VEC4"
    },
    {
      "bufferView": 4,
      "componentType": 5126,
      "count": 934,
      "max": [
        1.0,
        0.5,
        0.3333333432674408,
        0.25
      ],
      "min": [
        0.25,
        0.0,
        0.0,
        0.0
      ],
      "type": "VEC4"
    }
  ],
  "asset": {
    "extras": {
      "author": "chained_tan (https://sketchfab.com/ch_fren)",
      "license": "CC-BY-4.0 (http://creativecommons.org/licenses/by/4.0/)",
      "source": "https://sketchfab.com/3d-models/houshou-marine-hololive-d8c9e1f56fa14b86be871c238aa2448b",
      "title": "Houshou marine (hololive)"
    },
    "generator": "Sketchfab-15.55.0",
    "version": "2.0"
  },
  "bufferViews": [
    {
      "buffer": 0,
      "byteLength": 7472,
      "byteStride": 8,
      "name": "shortBufferViews",
      "target": 34962
    },
    {
      "buffer": 0,
      "byteLength": 5064,
      "byteOffset": 7472,
      "name": "floatBufferViews",
      "target": 34963
    },
    {
      "buffer": 0,
      "byteLength": 7472,
      "byteOffset": 12536,
      "byteStride": 8,
      "name": "floatBufferViews",
      "target": 34962
    },
    {
      "buffer": 0,
      "byteLength": 22416,
      "byteOffset": 20008,
      "byteStride": 12,
      "name": "floatBufferViews",
      "target": 34962
    },
    {
      "buffer": 0,
      "byteLength": 14944,
      "byteOffset": 42424,
      "byteStride": 16,
      "name": "floatBufferViews",
      "target": 34962
    },
    {
      "buffer": 0,
      "byteLength": 2368,
      "byteOffset": 57368,
      "name": "floatBufferViews"
    }
  ],
  "buffers": [
    {
      "byteLength": 59736,
      "uri": "scene.bin"
    }
  ],
  "extensionsUsed": [
    "KHR_materials_unlit"
  ],
  "images": [
    {
      "uri": "textures/senchomat_baseColor.png"
    },
    {
      "uri": "textures/senchomat_emissive.png"
    }
  ],
  "materials": [
    {
      "alphaMode": "BLEND",
      "doubleSided": true,
      "emissiveTexture": {
        "index": 1
      },
      "extensions": {
        "KHR_materials_unlit": {}
      },
      "name": "senchomat",
      "pbrMetallicRoughness": {
        "baseColorTexture": {
          "index": 0
        },
        "metallicFactor": 0.0
      }
    }
  ],
  "meshes": [
    {
      "name": "Object_0",
      "primitives": [
        {
          "attributes": {
            "JOINTS_0": 5,
            "NORMAL": 1,
            "POSITION": 0,
            "TEXCOORD_0": 2,
            "WEIGHTS_0": 6
          },
          "indices": 3,
          "material": 0,
          "mode": 4
        }
      ]
    }
  ],
  "nodes": [
    {
      "children": [
        1
      ],
      "matrix": [
        1.0,
        0.0,
        0.0,
        0.0,
        0.0,
        2.220446049250313e-16,
        -1.0,
        0.0,
        0.0,
        1.0,
        2.220446049250313e-16,
        0.0,
        0.0,
        0.0,
        0.0,
        1.0
      ],
      "name": "Sketchfab_model"
    },
    {
      "children": [
        2
      ],
      "name": "root"
    },
    {
      "children": [
        3
      ],
      "matrix": [
        1.0,
        0.0,
        0.0,
        0.0,
        0.0,
        2.220446049250313e-16,
        1.0,
        0.0,
        0.0,
        -1.0,
        2.220446049250313e-16,
        0.0,
        0.0,
        0.0,
        0.0,
        1.0
      ],
      "name": "GLTF_SceneRootNode"
    },
    {
      "children": [
        4
      ],
      "matrix": [
        1.0,
        0.0,
        0.0,
        0.0,
        0.0,
        1.0,
        0.0,
        0.0,
        0.0,
        0.0,
        1.0,
        0.0,
        -0.06415952742099762,
        0.0,
        0.0,
        1.0
      ],
      "name": "Armature_37"
    },
    {
      "children": [
        5,
        44,
        42
      ],
      "name": "GLTF_created_0"
    },
    {
      "children": [
        6
      ],
      "name": "GLTF_created_0_rootJoint"
    },
    {
      "children": [
        7
      ],
      "name": "root_35"
    },
    {
      "children": [
        8,
        34,
        38
      ],
      "name": "hips_34",
      "rotation": [
        0.0,
        0.7071070671081543,
        0.0,
        0.7071065902709961
      ],
      "scale": [
        1.0,
        0.9999999403953552,
        1.0
      ],
      "translation": [
        0.0,
        0.8935052156448364,
        0.0
      ]
    },
    {
      "children": [
        9
      ],
      "name": "spine_25",
      "rotation": [
        0.058256346732378006,
        0.9973255395889282,
        0.04406049847602844,
        0.0025743504520505667
      ],
      "translation": [
        0.0,
        0.12028783559799194,
        0.0
      ]
    },
    {
      "children": [
        10,
        19,
        26,
        33
      ],
      "name": "chest_24",
      "rotation": [
        0.06187249720096588,
        -7.502928929170594e-05,
        -0.04240531101822853,
        0.9971828460693359
      ],
      "scale": [
        1.0,
        1.0000001192092896,
        1.0
      ],
      "translation": [
        6.942010521981956e-09,
        0.15513551235198975,
        3.702594041234781e-15
      ]
    },
    {
      "children": [
        11
      ],
      "name": "neck_8",
      "rotation": [
        -2.1281277184925784e-08,
        -1.1911667741060228e-07,
        -0.033263206481933594,
        0.9994466304779053
      ],
      "scale": [
        0.9999999403953552,
        0.9999999403953552,
        1.0
      ],
      "translation": [
        -1.862645149230957e-09,
        0.3322310149669647,
        1.7763568394002505e-15
      ]
    },
    {
      "children": [
        12,
        13,
        14,
        15,
        16,
        17,
        18
      ],
      "name": "head_7",
      "rotation": [
        6.997815944487229e-06,
        -0.0002763266966212541,
        -0.03307100757956505,
        0.9994529485702515
      ],
      "scale": [
        0.9999998807907104,
        1.0,
        0.9999999403953552
      ],
      "translation": [
        8.839241338876036e-09,
        0.12178575992584229,
        -2.5067762197072095e-15
      ]
    },
    {
      "name": "eye.L_0",
      "rotation": [
        -0.4871627986431122,
        -0.5125158429145813,
        -0.48716264963150024,
        0.5125159621238708
      ],
      "scale": [
        0.9999999403953552,
        0.9999998211860657,
        0.9999999403953552
      ],
      "translation": [
        0.07564438879489899,
        0.10749974101781845,
        -0.028333354741334915
      ]
    },
    {
      "name": "eye.R_1",
      "rotation": [
        -0.4871627986431122,
        -0.5125158429145813,
        -0.48716264963150024,
        0.5125159621238708
      ],
      "scale": [
        0.9999999403953552,
        0.9999998211860657,
        0.9999999403953552
      ],
      "translation": [
        0.07564441114664078,
        0.10749974101781845,
        0.02833331562578678
      ]
    },
    {
      "name": "twin tails.L_2",
      "rotation": [
        -0.7067506313323975,
        0.020697344094514847,
        -0.7067368030548096,
        0.02446073666214943
      ],
      "scale": [
        0.9999999403953552,
        0.9999998807907104,
        1.0000040531158447
      ],
      "translation": [
        -0.08408717811107635,
        0.2222600132226944,
        -0.17894966900348663
      ]
    },
    {
      "name": "twin tails.R_3",
      "rotation": [
        0.7067369818687439,
        0.024460969492793083,
        0.7067504525184631,
        0.020697379484772682
      ],
      "scale": [
        1.0,
        0.9999999403953552,
        1.0000040531158447
      ],
      "translation": [
        -0.08408703655004501,
        0.22225965559482574,
        0.1789497286081314
      ]
    },
    {
      "name": "side bows.R_4",
      "rotation": [
        0.8786006569862366,
        9.063056438662898e-08,
        -0.02904549054801464,
        0.47667306661605835
      ],
      "scale": [
        0.9999999403953552,
        0.9999998211860657,
        0.9999997019767761
      ],
      "translation": [
        -0.08408700674772263,
        0.22225971519947052,
        0.17894981801509857
      ]
    },
    {
      "name": "side bows.L_5",
      "rotation": [
        -0.029045289382338524,
        -0.4766729474067688,
        0.8786007761955261,
        3.657022418224187e-08
      ],
      "scale": [
        0.9999998807907104,
        1.000000238418579,
        1.000000238418579
      ],
      "translation": [
        -0.08408714085817337,
        0.22225980460643768,
        -0.17894984781742096
      ]
    },
    {
      "name": "hair_6",
      "rotation": [
        -3.968235660067876e-07,
        -2.9600112583239024e-08,
        -0.970518946647644,
        0.2410248965024948
      ],
      "scale": [
        1.0000005960464478,
        1.0000001192092896,
        1.0
      ],
      "translation": [
        0.07218555361032486,
        0.3297770321369171,
        -1.663731730161544e-08
      ]
    },
    {
      "children": [
        20
      ],
      "name": "shoulder.L_15",
      "rotation": [
        -0.6864899396896362,
        0.12127485126256943,
        0.07750622183084488,
        0.7127529978752136
      ],
      "scale": [
        0.9999998211860657,
        0.9999999403953552,
        1.0
      ],
      "translation": [
        0.021112674847245216,
        0.316831111907959,
        -0.025000011548399925
      ]
    },
    {
      "children": [
        21
      ],
      "name": "upper_arm.L_14",
      "rotation": [
        -0.6483629941940308,
        0.14420045912265778,
        -0.06367142498493195,
        0.7448340058326721
      ],
      "scale": [
        1.0000001192092896,
        1.0000001192092896,
        1.0
      ],
      "translation": [
        1.5786330465061837e-08,
        0.1025303453207016,
        3.5856137969858537e-07
      ]
    },
    {
      "children": [
        22
      ],
      "name": "lower_arm.L_13",
      "rotation": [
        0.15398038923740387,
        0.0021288057323545218,
        -0.06487469375133514,
        0.9859395623207092
      ],
      "scale": [
        1.0,
        0.9999999403953552,
        1.0
      ],
      "translation": [
        1.756706780042805e-08,
        0.2690149247646332,
        6.591039891645778e-08
      ]
    },
    {
      "children": [
        23,
        25
      ],
      "name": "hand.L_12",
      "rotation": [
        0.1982380598783493,
        0.04182089865207672,
        0.0728275254368782,
        0.9765494465827942
      ],
      "scale": [
        1.0,
        1.0,
        1.0000001192092896
      ],
      "translation": [
        1.9377196736058977e-08,
        0.27384281158447266,
        -2.5342353637825e-07
      ]
    },
    {
      "children": [
        24
      ],
      "name": "thumb_proximal.L_10",
      "rotation": [
        1.0483557133511567e-08,
        1.0956239471227036e-08,
        -0.1357167810201645,
        0.9907476902008057
      ],
      "scale": [
        1.0,
        0.9999999403953552,
        1.0
      ],
      "translation": [
        0.02587563544511795,
        0.011405112221837044,
        -1.1888414697125427e-09
      ]
    },
    {
      "name": "thumb_intermediate.L_9",
      "rotation": [
        -9.816444546117964e-09,
        2.183201397443213e-09,
        0.09070730209350586,
        0.9958776831626892
      ],
      "scale": [
        0.9999998807907104,
        0.9999999403953552,
        1.0
      ],
      "translation": [
        -1.4493862110498412e-08,
        0.08258461207151413,
        -4.505523509834575e-09
      ]
    },
    {
      "name": "index_proximal.L_11",
      "rotation": [
        -8.295534925650827e-09,
        1.6839520056155521e-10,
        -0.005670626647770405,
        0.9999839067459106
      ],
      "translation": [
        0.010155127383768559,
        0.09941521286964417,
        -1.5897714256141171e-09
      ]
    },
    {
      "children": [
        27
      ],
      "name": "shoulder.R_22",
      "rotation": [
        -0.07750590145587921,
        0.7127530574798584,
        0.6864899396896362,
        0.12127446383237839
      ],
      "scale": [
        1.0,
        1.0000001192092896,
        1.0000001192092896
      ],
      "translation": [
        0.021112700924277306,
        0.316831111907959,
        0.024999987334012985
      ]
    },
    {
      "children": [
        28
      ],
      "name": "upper_arm.R_21",
      "rotation": [
        -0.6483629941940308,
        -0.14420045912265778,
        0.06367141753435135,
        0.7448339462280273
      ],
      "scale": [
        1.0000001192092896,
        1.0,
        1.0000001192092896
      ],
      "translation": [
        4.304663292487021e-09,
        0.10253031551837921,
        3.2467453170426097e-09
      ]
    },
    {
      "children": [
        29
      ],
      "name": "lower_arm.R_20",
      "rotation": [
        0.15398040413856506,
        -0.002128796884790063,
        0.06487473100423813,
        0.9859395623207092
      ],
      "scale": [
        0.9999998807907104,
        0.9999997615814209,
        0.9999999403953552
      ],
      "translation": [
        2.0872128914106725e-08,
        0.26901474595069885,
        7.99502970494359e-08
      ]
    },
    {
      "children": [
        30,
        32
      ],
      "name": "hand.R_19",
      "rotation": [
        -0.010264343582093716,
        0.00043592072324827313,
        -0.039318639785051346,
        0.9991739988327026
      ],
      "scale": [
        0.9999999403953552,
        0.9999997615814209,
        0.9999999403953552
      ],
      "translation": [
        -1.741621957762618e-08,
        0.2738429009914398,
        -2.629317918945162e-07
      ]
    },
    {
      "children": [
        31
      ],
      "name": "thumb_proximal.R_17",
      "rotation": [
        -0.0990980938076973,
        0.005384205840528011,
        0.1795225590467453,
        0.9787350296974182
      ],
      "scale": [
        0.9999999403953552,
        1.0,
        1.0
      ],
      "translation": [
        -0.025875654071569443,
        0.011405101977288723,
        -1.638871816034282e-10
      ]
    },
    {
      "name": "thumb_intermediate.R_16",
      "rotation": [
        -3.913433133106992e-09,
        -3.4238252233365074e-09,
        -0.09070731699466705,
        0.9958776831626892
      ],
      "scale": [
        0.9999998807907104,
        0.9999999403953552,
        1.0
      ],
      "translation": [
        1.4524520253189621e-08,
        0.08258458226919174,
        -2.189074521652401e-08
      ]
    },
    {
      "name": "index_proximal.R_18",
      "rotation": [
        0.026667829602956772,
        0.33992061018943787,
        0.1209130510687828,
        0.9322676062583923
      ],
      "scale": [
        1.0,
        1.0000001192092896,
        1.0
      ],
      "translation": [
        -0.01015515811741352,
        0.09941523522138596,
        3.998998632237516e-10
      ]
    },
    {
      "name": "chest.002_23",
      "rotation": [
        -5.377156639951863e-07,
        -1.90633482333169e-08,
        -0.9340288639068604,
        0.357197642326355
      ],
      "scale": [
        1.0000003576278687,
        1.0,
        1.0
      ],
      "translation": [
        8.692683195477002e-08,
        0.3322311043739319,
        -1.1998284039482082e-13
      ]
    },
    {
      "children": [
        35
      ],
      "name": "upper_leg.L_29",
      "rotation": [
        -0.15884383022785187,
        -0.03995097056031227,
        0.9620347023010254,
        0.21831588447093964
      ],
      "scale": [
        1.0,
        0.9999998807907104,
        1.0000001192092896
      ],
      "translation": [
        -9.848690751823597e-08,
        0.06342041492462158,
        0.12469631433486938
      ]
    },
    {
      "children": [
        36
      ],
      "name": "lower_leg.L_28",
      "rotation": [
        0.03687061741948128,
        -0.005807291716337204,
        0.36165744066238403,
        0.9315636157989502
      ],
      "translation": [
        2.9802322387695313e-08,
        0.3762108385562897,
        -5.587942109031019e-09
      ]
    },
    {
      "children": [
        37
      ],
      "name": "foot.L_27",
      "rotation": [
        0.012572831474244595,
        0.0039113350212574005,
        -0.29702028632164,
        0.9547803997993469
      ],
      "scale": [
        1.0,
        1.0,
        0.9999998807907104
      ],
      "translation": [
        -9.987023652513471e-09,
        0.48320770263671875,
        -2.1477729816865576e-08
      ]
    },
    {
      "name": "toes.L_26",
      "rotation": [
        -0.4651469588279724,
        -0.885233461856842,
        -1.6658084689424868e-07,
        6.964442889056954e-08
      ],
      "scale": [
        1.000000238418579,
        1.000000238418579,
        1.0000001192092896
      ],
      "translation": [
        1.6886684273131891e-09,
        0.11875233799219131,
        8.379103633160412e-09
      ]
    },
    {
      "children": [
        39
      ],
      "name": "upper_leg.R_33",
      "rotation": [
        0.9966439604759216,
        0.03259536623954773,
        0.034702450037002563,
        0.06658969819545746
      ],
      "scale": [
        1.0,
        1.0000001192092896,
        1.0000001192092896
      ],
      "translation": [
        9.079391816158022e-08,
        0.06342041492462158,
        -0.12469631433486938
      ]
    },
    {
      "children": [
        40
      ],
      "name": "lower_leg.R_32",
      "rotation": [
        -0.011965600773692131,
        0.02830692008137703,
        -0.11422371119260788,
        0.9929795861244202
      ],
      "scale": [
        1.0,
        1.0000001192092896,
        1.0000001192092896
      ],
      "translation": [
        -3.774758283725532e-15,
        0.3762107789516449,
        -5.828670879282072e-16
      ]
    },
    {
      "children": [
        41
      ],
      "name": "foot.R_31",
      "rotation": [
        0.01257283054292202,
        -0.00391132989898324,
        0.2970203161239624,
        0.9547803997993469
      ],
      "scale": [
        1.0,
        1.0,
        0.9999999403953552
      ],
      "translation": [
        1.2271511806716262e-08,
        0.48320767283439636,
        1.1398136656737279e-08
      ]
    },
    {
      "name": "toes.R_30",
      "rotation": [
        -0.46514689922332764,
        0.8852335214614868,
        1.668067142190921e-07,
        6.299634236484053e-08
      ],
      "scale": [
        1.0000001192092896,
        1.0,
        1.0000001192092896
      ],
      "translation": [
        -4.227409977630714e-09,
        0.11875232309103012,
        8.328084000197578e-09
      ]
    },
    {
      "children": [
        43
      ],
      "matrix": [
        1.0,
        0.0,
        0.0,
        0.0,
        0.0,
        1.0,
        0.0,
        0.0,
        0.0,
        0.0,
        1.0,
        0.0,
        0.06415952742099762,
        0.0,
        0.0,
        1.0
      ],
      "name": "body_36_correction"
    },
    {
      "name": "body_36"
    },
    {
      "mesh": 0,
      "name": "Object_44",
      "skin": 0
    }
  ],
  "samplers": [
    {
      "magFilter": 9728,
      "minFilter": 9728,
      "wrapS": 10497,
      "wrapT": 10497
    }
  ],
  "scene": 0,
  "scenes": [
    {
      "name": "Sketchfab_Scene",
      "nodes": [
        0
      ]
    }
  ],
  "skins": [
    {
      "inverseBindMatrices": 4,
      "joints": [
        5,
        6,
        7,
        8,
        9,
        10,
        11,
        12,
        13,
        14,
        15,
        16,
        17,
        18,
        19,
        20,
        21,
        22,
        23,
        24,
        25,
        26,
        27,
        28,
        29,
        30,
        31,
        32,
        33,
        34,
        35,
        36,
        37,
        38,
        39,
        40,
        41
      ],
      "skeleton": 5
    }
  ],
  "textures": [
    {
      "sampler": 0,
      "source": 0
    },
    {
      "sampler": 0,
      "source": 1
    }
  ]
}
